<svg id="theEye" width="200px" height="100px" viewBox="0 0 200 100">
    <path
        d="M60.86,44.82a17,17,0,1,0,17,17A17,17,0,0,0,60.86,44.82Zm6.48,13.91A5.65,5.65,0,1,1,73,53.08,5.65,5.65,0,0,1,67.34,58.73Z" />
    <path
        d="M100.08,53.82a44,44,0,0,1-9.47-6.89,36.38,36.38,0,0,0-4.31-5,48.23,48.23,0,0,0-6-5C76.51,34.34,69.89,29.8,61,29.77S45.41,34.34,41.59,37a48.59,48.59,0,0,0-6,5,37.22,37.22,0,0,0-4.32,5,43.84,43.84,0,0,1-9.46,6.89c-6.28,3.4-10.74,3.8-10.88,5.85-.11,1.62,2.62,1.85,8.75,6.57A87.19,87.19,0,0,1,29.24,75c1.19,1.24,2.55,2.73,2.55,2.73,1.29,1.46,1.88,2.27,3.07,3.48,8.7,9,20.41,10.56,21.69,10.72a33.42,33.42,0,0,0,4.41.25,33.51,33.51,0,0,0,4.41-.25c1.28-.16,13-1.77,21.69-10.72,1.18-1.21,1.78-2,3.07-3.48,0,0,1.35-1.49,2.54-2.73a87.58,87.58,0,0,1,9.54-8.72c6.13-4.72,8.86-4.95,8.74-6.57C110.81,57.62,106.36,57.22,100.08,53.82ZM61,90.93A29.1,29.1,0,0,1,34.18,50.66a62.69,62.69,0,0,1,16.41-5.47,61.48,61.48,0,0,1,20.73,0,62.69,62.69,0,0,1,16.41,5.47A29.1,29.1,0,0,1,61,90.93Z" />
</svg>