<svg id="Layer_1" data-name="Layer 1" xmlns="http://www.w3.org/2000/svg" viewBox="0 0 134.38 134.38"><title>Artboard 17</title><rect x="66.09" y="12.65" width="2.21" height="38.39" rx="1.02" ry="1.02"/><rect x="92.11" y="37.82" width="2.21" height="21.36" rx="1.02" ry="1.02" transform="translate(22.57 -29.29) rotate(20.27)"/><rect x="104.96" y="39.9" width="2.21" height="27.71" rx="1.02" ry="1.02" transform="translate(38.88 -44.35) rotate(28.72)"/><rect x="111.03" y="60.93" width="2.21" height="14.63" rx="1.02" ry="1.02" transform="translate(61.16 -52.73) rotate(35.83)"/><rect x="81.23" y="20.43" width="2.21" height="33.33" rx="1.02" ry="1.02" transform="translate(10.05 -17.03) rotate(12.57)"/><rect x="40.06" y="37.82" width="2.21" height="21.36" rx="1.02" ry="1.02" transform="matrix(-0.94, 0.35, -0.35, -0.94, 96.58, 79.72)"/><rect x="27.21" y="39.9" width="2.21" height="27.71" rx="1.02" ry="1.02" transform="translate(78.99 87.29) rotate(151.28)"/><rect x="21.14" y="60.93" width="2.21" height="14.63" rx="1.02" ry="1.02" transform="translate(80.22 110.54) rotate(144.17)"/><rect x="50.94" y="20.43" width="2.21" height="33.33" rx="1.02" ry="1.02" transform="translate(110.93 61.98) rotate(167.43)"/><path d="M67.1,72.89a17,17,0,1,0,17,17A17,17,0,0,0,67.1,72.89ZM73.58,86.8a5.65,5.65,0,1,1,5.65-5.65A5.65,5.65,0,0,1,73.58,86.8Z"/><path d="M106.31,81.9A44.16,44.16,0,0,1,96.85,75a37.22,37.22,0,0,0-4.32-5,49.63,49.63,0,0,0-6-4.95c-3.82-2.62-10.43-7.16-19.37-7.2S51.64,62.42,47.83,65a49.26,49.26,0,0,0-6,4.95,36.38,36.38,0,0,0-4.31,5,44.27,44.27,0,0,1-9.47,6.9c-6.28,3.39-10.73,3.79-10.87,5.84-.12,1.62,2.61,1.85,8.74,6.57A89.73,89.73,0,0,1,35.48,103c1.18,1.25,2.54,2.74,2.54,2.74,1.29,1.45,1.89,2.26,3.07,3.47,8.71,9,20.41,10.56,21.69,10.72a39,39,0,0,0,8.82,0c1.28-.16,13-1.77,21.69-10.72,1.18-1.21,1.78-2,3.07-3.47,0,0,1.36-1.49,2.55-2.74a89.32,89.32,0,0,1,9.53-8.72c6.13-4.72,8.86-5,8.75-6.57C117,85.69,112.59,85.29,106.31,81.9ZM67.19,119A29.1,29.1,0,0,1,40.41,78.73a62.92,62.92,0,0,1,16.42-5.47,61.48,61.48,0,0,1,20.73,0A62.69,62.69,0,0,1,94,78.73,29.1,29.1,0,0,1,67.19,119Z"/></svg>